#!OML:ASF F:\VICON\USERDATA\INSTALL\rory3\rory3.ASF
:FULLY-SPECIFIED
:DEGREES
17
root -0.717068 18.8249 -23.7289 4.14591 3.63414 -5.40229
lowerback 12.4155 2.25513 5.49143
upperback -1.91068 4.02528 1.79411
thorax -8.79128 1.7173 -1.95917
lowerneck -16.958 -5.17667 -1.78337
upperneck 16.2048 -6.94403 1.61438
head 7.91848 -3.2467 0.0108377
rclavicle -2.01518e-014 -1.35174e-014
rhumerus -41.8144 15.2229 -95.641
rradius 117.652
rwrist -10.8153
rhand -17.3512 43.3256
rfingers 7.12502
rthumb 8.89649 13.5332
lclavicle -2.01518e-014 -1.35174e-014
lhumerus -70.1318 -3.6051 95.9428
lradius 102.553
lwrist 35.7123
lhand -24.0709 0.988956
lfingers 7.12502
lthumb 2.40886 30.9551
rfemur 10.4678 4.30242 32.14
rtibia 31.0382
rfoot 25.295 -6.56809
rtoes 3.90273
lfemur -36.3611 -0.273833 -17.2817
ltibia 54.3135
lfoot -0.692387 -2.16122
ltoes -23.0482
18
root -0.706012 18.8861 -23.1892 4.12885 3.73219 -5.41801
lowerback 12.1815 2.31039 5.42538
upperback -2.24656 4.09517 1.83557
thorax -9.02652 1.74385 -1.88746
lowerneck -16.1874 -5.21796 -1.88949
upperneck 16.3913 -7.0016 1.65672
head 7.85296 -3.28248 0.0524771
rclavicle -6.68413e-015 -2.34566e-014
rhumerus -42.9193 16.1941 -96.2348
rradius 117.852
rwrist -9.86628
rhand -15.271 47.1702
rfingers 7.12502
rthumb 10.9034 17.4733
lclavicle -6.68413e-015 -2.34566e-014
lhumerus -71.4682 -2.8728 95.6786
lradius 102.753
lwrist 35.1595
lhand -23.7238 0.686632
lfingers 7.12502
lthumb 2.74406 30.6487
rfemur 11.3166 5.47127 32.594
rtibia 31.6093
rfoot 27.3707 -6.43856
rtoes 10.9965
lfemur -35.5472 -1.0141 -17.1764
ltibia 49.1914
lfoot -0.312002 -2.26118
ltoes -26.4551
19
root -0.695938 18.9249 -22.6633 4.06275 3.90393 -5.54562
lowerback 12.1429 2.33087 5.4631
upperback -2.54884 4.15321 1.93577
thorax -9.33818 1.75863 -1.81786
lowerneck -15.6968 -5.27305 -2.03439
upperneck 16.6211 -7.06718 1.70228
head 7.85196 -3.32084 0.0925691
rclavicle -3.55079e-014 -3.85642e-014
rhumerus -43.8769 16.9656 -96.7328
rradius 117.994
rwrist -9.07093
rhand -16.0827 46.0946
rfingers 7.12502
rthumb 10.1203 16.358
lclavicle -3.55079e-014 -3.85642e-014
lhumerus -72.6308 -2.30463 95.5294
lradius 102.912
lwrist 34.7212
lhand -23.8489 0.435632
lfingers 7.12502
lthumb 2.62327 30.3992
rfemur 11.851 6.35247 33.1845
rtibia 32.8754
rfoot 27.6409 -6.2195
rtoes 18.2531
lfemur -34.708 -1.78926 -16.9295
ltibia 44.2783
lfoot 1.19328 -3.47912
ltoes -24.881
20
root -0.687525 18.9529 -22.1479 3.90561 4.23175 -5.6816
lowerback 12.2819 2.29584 5.73862
upperback -1.73586 4.10343 1.86548
thorax -8.50751 1.75731 -2.02356
lowerneck -20.2098 -5.42241 -1.61696
upperneck 18.1396 -7.30238 1.44368
head 9.13799 -3.35972 -0.238096
rclavicle 4.47266e-016 1.0138e-014
rhumerus -41.9169 17.6494 -96.4259
rradius 117.853
rwrist -8.95303
rhand -18.1336 42.6797
rfingers 7.12502
rthumb 8.14137 12.8565
lclavicle 4.47266e-016 1.0138e-014
lhumerus -71.0152 -2.36794 95.2573
lradius 102.759
lwrist 34.3436
lhand -24.4902 0.648978
lfingers 7.12502
lthumb 2.00391 30.6193
rfemur 12.1587 6.88678 33.7432
rtibia 34.6033
rfoot 27.4534 -5.71764
rtoes 20.4488
lfemur -33.8497 -2.58871 -16.6886
ltibia 39.5852
lfoot 2.28421 -4.60407
ltoes -24.9105
21
root -0.677055 18.9736 -21.6323 3.72131 4.5371 -5.76919
lowerback 12.6248 2.2362 5.86298
upperback -2.49239 4.11908 1.88101
thorax -9.52926 1.7108 -2.11652
lowerneck -17.6345 -5.39888 -1.76675
upperneck 17.5652 -7.28542 1.60551
head 8.499 -3.38273 -0.076762
rclavicle 1.99033e-014 -1.63003e-014
rhumerus -43.907 18.0247 -97.3587
rradius 118.123
rwrist -8.6367
rhand -19.123 40.886
rfingers 7.12502
rthumb 7.18645 11.028
lclavicle 1.99033e-014 -1.63003e-014
lhumerus -73.0317 -2.16925 95.3027
lradius 103.104
lwrist 34.1474
lhand -24.5274 0.97234
lfingers 7.12502
lthumb 1.96802 30.943
rfemur 12.2751 7.27511 34.1747
rtibia 36.671
rfoot 26.7098 -5.84304
rtoes 21.8938
lfemur -32.9311 -3.40674 -16.5158
ltibia 35.177
lfoot 2.95424 -5.58085
ltoes -23.8046
22
root -0.66759 18.9928 -21.1082 3.59123 4.60189 -5.94152
lowerback 12.7296 2.23905 6.01134
upperback -2.67634 4.17221 1.93067
thorax -9.78492 1.71713 -2.16626
lowerneck -17.186 -5.43321 -1.85308
upperneck 17.3873 -7.32753 1.68082
head 8.36699 -3.4081 -0.0279422
rclavicle -2.07978e-014 -3.85642e-014
rhumerus -44.6479 18.6086 -97.9678
rradius 118.17
rwrist -8.16817
rhand -19.2147 40.6289
rfingers 7.12502
rthumb 7.09793 10.7679
lclavicle -2.07978e-014 -3.85642e-014
lhumerus -73.6782 -2.02234 95.397
lradius 103.296
lwrist 33.9771
lhand -24.2889 0.98154
lfingers 7.12502
lthumb 2.19835 30.95
rfemur 12.2055 7.78338 34.6614
rtibia 39.048
rfoot 26.0505 -6.12077
rtoes 21.4586
lfemur -31.9672 -4.18919 -16.2046
ltibia 31.1603
lfoot 3.37667 -6.01573
ltoes -23.0779
23
root -0.660222 19.0016 -20.5838 3.5054 4.51862 -6.28074
lowerback 12.501 2.26443 6.21462
upperback -2.4636 4.21861 2.06348
thorax -9.41028 1.74992 -2.12836
lowerneck -17.787 -5.53836 -1.82501
upperneck 17.2527 -7.44944 1.60771
head 8.42498 -3.46632 -0.0867497
rclavicle 3.18055e-015 7.95139e-016
rhumerus -44.6838 19.0567 -98.2377
rradius 117.974
rwrist -7.9881
rhand -18.6662 41.6586
rfingers 7.12502
rthumb 7.62738 11.8161
lclavicle 3.18055e-015 7.95139e-016
lhumerus -73.3904 -1.88156 95.572
lradius 103.344
lwrist 33.8902
lhand -23.8916 0.911716
lfingers 7.12502
lthumb 2.58203 30.8758
rfemur 11.935 8.29906 35.2777
rtibia 41.7375
rfoot 25.533 -6.53286
rtoes 21.2572
lfemur -31.1186 -4.7653 -15.7157
ltibia 27.6906
lfoot 3.83955 -6.13724
ltoes -22.7045
24
root -0.656816 18.9889 -20.0624 3.33041 4.55399 -6.24463
lowerback 12.3396 2.28604 5.98756
upperback -2.39892 4.19958 2.1251
thorax -9.26604 1.76211 -1.92252
lowerneck -17.3374 -5.58211 -1.81431
upperneck 16.654 -7.50176 1.61601
head 8.14522 -3.50298 -0.0692411
rclavicle 1.29459e-014 -2.78299e-015
rhumerus -45.152 19.1904 -98.5384
rradius 117.708
rwrist -7.96898
rhand -18.0037 42.4238
rfingers 7.12502
rthumb 8.2668 12.6056
lclavicle 1.29459e-014 -2.78299e-015
lhumerus -73.4844 -1.96787 95.9493
lradius 103.482
lwrist 33.8784
lhand -23.6749 0.865588
lfingers 7.12502
lthumb 2.79135 30.8271
rfemur 11.6194 8.48037 35.4635
rtibia 44.7837
rfoot 24.465 -7.218
rtoes 22.4397
lfemur -30.3174 -5.40496 -15.6832
ltibia 24.9725
lfoot 4.21889 -5.9745
ltoes -19.047
25
root -0.653643 18.9675 -19.5444 3.19547 4.61848 -5.9996
lowerback 12.3003 2.25669 5.51611
upperback -2.64849 4.10304 2.16504
thorax -9.5584 1.73031 -1.60301
lowerneck -15.7797 -5.46492 -1.90016
upperneck 15.8306 -7.34049 1.71871
head 7.60515 -3.44997 0.0551305
rclavicle -1.62506e-014 -2.38542e-014
rhumerus -46.3782 19.3894 -99.1391
rradius 117.323
rwrist -7.59742
rhand -18.2198 41.6208
rfingers 7.12502
rthumb 8.05817 11.7944
lclavicle -1.62506e-014 -2.38542e-014
lhumerus -74.0901 -2.04427 96.3985
lradius 103.506
lwrist 33.8898
lhand -23.8196 0.596345
lfingers 7.12502
lthumb 2.65156 30.5596
rfemur 11.0242 8.42463 35.2811
rtibia 48.198
rfoot 24.2168 -8.04663
rtoes 21.3117
lfemur -29.6946 -5.82186 -16.0082
ltibia 22.8992
lfoot 4.56834 -5.87837
ltoes -17.2146
26
root -0.653034 18.941 -19.0277 2.97964 4.45023 -5.76942
lowerback 12.236 2.41518 5.25305
upperback -2.12755 4.21666 1.95465
thorax -8.94067 1.81969 -1.68734
lowerneck -17.3188 -5.51684 -1.52171
upperneck 15.8206 -7.50018 1.81649
head 7.86046 -3.47561 -0.0348731
rclavicle -8.69683e-015 -2.10712e-014
rhumerus -45.7658 19.0763 -99.2495
rradius 116.738
rwrist -7.31065
rhand -18.4123 41.3299
rfingers 7.12502
rthumb 7.8724 11.4965
lclavicle -8.69683e-015 -2.10712e-014
lhumerus -72.8859 -2.97991 96.6878
lradius 103.39
lwrist 33.9463
lhand -24.5678 0.86942
lfingers 7.12502
lthumb 1.92897 30.8404
rfemur 10.2024 8.49202 35.0551
rtibia 51.9397
rfoot 23.9023 -9.31906
rtoes 19.0818
lfemur -28.7725 -5.67612 -16.4508
ltibia 21.4694
lfoot 4.52879 -6.14285
ltoes -17.299
27
root -0.651109 18.8916 -18.5084 2.76193 4.12494 -5.61445
lowerback 12.1491 2.52221 4.99037
upperback -1.70669 4.28022 1.8607
thorax -8.43704 1.88239 -1.637
lowerneck -18.326 -5.50869 -1.53136
upperneck 15.6601 -7.52869 2.12697
head 7.99507 -3.44789 0.0394867
rclavicle -1.09332e-015 1.31198e-014
rhumerus -45.2909 19.0333 -99.4046
rradius 116.015
rwrist -7.46312
rhand -18.2225 41.578
rfingers 7.12502
rthumb 8.05563 11.7515
lclavicle -1.09332e-015 1.31198e-014
lhumerus -71.9405 -3.56432 96.9717
lradius 103.44
lwrist 34.0418
lhand -24.3351 0.626179
lfingers 7.12502
lthumb 2.15371 30.5951
rfemur 9.11706 8.56055 34.7821
rtibia 55.9111
rfoot 23.8998 -10.2733
rtoes 19.086
lfemur -28.2335 -5.3108 -16.8616
ltibia 20.6755
lfoot 4.94695 -6.62147
ltoes -15.3466
28
root -0.651235 18.8278 -17.999 2.44496 4.18635 -5.28424
lowerback 12.2769 2.46104 4.58819
upperback -1.51085 4.12838 1.77444
thorax -8.32628 1.83116 -1.47873
lowerneck -18.2495 -5.4697 -1.68222
upperneck 15.3173 -7.48347 2.43488
head 7.8859 -3.41035 0.177315
rclavicle -2.14936e-015 -3.49861e-014
rhumerus -45.1987 19.059 -99.6657
rradius 115.002
rwrist -7.31469
rhand -18.341 40.8018
rfingers 7.12502
rthumb 7.94127 10.971
lclavicle -2.14936e-015 -3.49861e-014
lhumerus -71.4319 -4.03619 97.2984
lradius 103.535
lwrist 34.0533
lhand -23.6869 0.273237
lfingers 7.12502
lthumb 2.77976 30.2349
rfemur 7.85454 8.06924 34.2051
rtibia 60.0867
rfoot 25.2048 -10.8802
rtoes 20.5064
lfemur -27.4842 -4.41101 -17.8383
ltibia 20.279
lfoot 4.92869 -8.16226
ltoes -13.8564
29
root -0.658015 18.7568 -17.5061 1.983 4.90392 -4.9604
lowerback 12.7306 2.22563 4.24375
upperback -1.31612 3.77122 1.67136
thorax -8.40755 1.67071 -1.34772
lowerneck -18.4281 -5.46675 -1.65386
upperneck 15.3094 -7.51444 2.58887
head 7.92022 -3.40531 0.214874
rclavicle 2.83517e-014 1.23246e-014
rhumerus -45.2738 18.6715 -99.9121
rradius 113.985
rwrist -6.97232
rhand -18.719 40.1334
rfingers 7.12502
rthumb 7.57642 10.2891
lclavicle 2.83517e-014 1.23246e-014
lhumerus -70.6106 -4.90549 97.7237
lradius 103.444
lwrist 33.8795
lhand -24.217 0.619979
lfingers 7.12502
lthumb 2.26781 30.5877
rfemur 6.42515 6.72773 33.5024
rtibia 64.2953
rfoot 26.2451 -11.6226
rtoes 20.9599
lfemur -26.662 -3.74611 -18.8266
ltibia 20.6676
lfoot 4.41989 -9.86376
ltoes -12.9712
